<svg id="svg" version="1.1" xmlns="http://www.w3.org/2000/svg" xmlns:xlink="http://www.w3.org/1999/xlink" height="500" width="80"  viewBox="0, 0, 400,343.75"><g id="svgg"><path id="path0" d="M180.396 50.907 C 151.831 51.003,128.437 51.120,128.407 51.165 C 127.969 51.838,125.270 53.658,124.439 53.841 C 123.235 54.105,122.875 54.390,121.950 55.804 C 121.609 56.324,121.144 56.750,120.915 56.750 C 120.396 56.750,119.003 58.201,119.003 58.741 C 119.003 58.960,118.571 59.363,118.045 59.635 C 117.096 60.126,116.502 60.996,116.071 62.532 C 115.948 62.969,115.470 63.498,115.009 63.708 C 114.548 63.919,114.085 64.490,113.980 64.977 C 113.876 65.465,113.657 66.174,113.494 66.552 C 113.332 66.930,113.106 67.574,112.992 67.983 C 112.878 68.392,112.268 69.121,111.636 69.603 C 110.725 70.297,110.436 70.816,110.244 72.097 C 110.058 73.337,109.694 74.019,108.689 75.015 C 107.772 75.922,107.304 76.738,107.139 77.719 C 106.985 78.629,106.484 79.566,105.719 80.377 C 105.054 81.083,104.376 82.272,104.168 83.099 C 103.964 83.907,103.298 85.158,102.688 85.878 C 102.077 86.599,101.284 88.016,100.924 89.028 C 100.537 90.115,99.897 91.132,99.357 91.517 C 98.813 91.905,98.357 92.632,98.228 93.322 C 97.896 95.088,96.776 97.171,95.819 97.798 C 95.266 98.160,94.875 98.823,94.725 99.653 C 94.411 101.386,93.746 102.634,92.697 103.460 C 92.219 103.835,91.730 104.662,91.609 105.296 C 91.318 106.825,90.708 107.994,89.652 109.050 C 89.175 109.527,88.675 110.375,88.540 110.935 C 88.154 112.540,87.423 113.777,86.731 113.997 C 86.303 114.133,85.901 114.892,85.507 116.312 C 85.093 117.800,84.582 118.739,83.778 119.487 C 83.035 120.179,82.551 121.018,82.394 121.890 C 82.122 123.393,81.404 124.686,80.276 125.709 C 79.858 126.088,79.250 127.230,78.925 128.247 C 78.600 129.264,77.821 130.640,77.194 131.305 C 76.493 132.048,75.968 133.026,75.829 133.847 C 75.705 134.581,75.419 135.372,75.193 135.604 C 74.017 136.815,72.936 138.593,72.593 139.883 C 72.330 140.871,71.897 141.514,71.230 141.909 C 70.462 142.363,70.159 142.901,69.820 144.416 C 69.508 145.810,69.078 146.638,68.271 147.400 C 67.529 148.100,66.957 149.132,66.566 150.475 C 66.158 151.878,65.619 152.826,64.804 153.573 C 64.157 154.165,63.629 154.890,63.629 155.184 C 63.629 156.189,62.519 158.382,61.533 159.325 C 60.991 159.843,60.459 160.694,60.349 161.217 C 59.658 164.506,59.374 165.346,58.709 166.058 C 56.641 168.270,56.632 177.428,58.695 179.880 C 59.220 180.504,59.724 181.807,60.052 183.386 C 60.577 185.915,61.285 187.446,61.929 187.446 C 62.353 187.446,63.507 190.060,63.821 191.732 C 63.946 192.401,64.253 192.949,64.503 192.949 C 65.170 192.949,66.249 194.624,66.722 196.392 C 66.960 197.282,67.616 198.420,68.272 199.078 C 68.896 199.705,69.505 200.739,69.625 201.375 C 69.744 202.011,70.446 203.263,71.185 204.157 C 71.992 205.134,72.618 206.311,72.752 207.106 C 72.898 207.969,73.371 208.801,74.117 209.505 C 74.836 210.183,75.409 211.169,75.666 212.169 C 76.232 214.374,76.665 215.185,77.465 215.542 C 78.111 215.831,79.449 218.668,79.449 219.752 C 79.450 220.022,79.986 220.735,80.641 221.335 C 81.420 222.048,81.984 222.991,82.269 224.058 C 82.509 224.956,83.080 226.064,83.537 226.522 C 84.529 227.514,85.152 228.652,85.453 230.024 C 85.575 230.578,86.015 231.352,86.431 231.743 C 87.786 233.016,88.044 233.480,88.425 235.326 C 88.632 236.327,88.987 237.300,89.213 237.489 C 90.227 238.338,91.450 240.351,91.669 241.534 C 91.838 242.441,92.199 242.998,92.878 243.400 C 93.757 243.919,94.326 245.064,95.455 248.581 C 95.531 248.818,95.813 249.011,96.082 249.011 C 96.569 249.011,97.795 251.251,98.207 252.896 C 98.327 253.372,98.785 254.100,99.225 254.513 C 99.666 254.927,100.367 256.177,100.783 257.291 C 101.200 258.406,102.036 259.842,102.641 260.483 C 103.372 261.259,103.879 262.271,104.156 263.506 C 104.457 264.853,104.780 265.456,105.331 265.700 C 106.060 266.023,107.049 268.042,107.465 270.059 C 107.574 270.589,108.086 271.240,108.658 271.578 C 109.364 271.995,109.788 272.633,110.099 273.746 C 110.664 275.774,111.052 276.488,112.211 277.628 C 112.731 278.140,113.156 278.774,113.156 279.037 C 113.156 279.727,114.039 281.396,114.884 282.304 C 115.285 282.733,116.000 283.932,116.474 284.966 C 116.947 286.001,117.619 287.000,117.966 287.186 C 118.313 287.372,118.943 288.083,119.366 288.767 C 119.788 289.451,120.569 290.162,121.100 290.347 C 121.648 290.538,122.258 291.121,122.511 291.697 C 122.843 292.450,123.311 292.799,124.334 293.059 C 126.163 293.523,127.127 294.030,128.180 295.084 C 129.497 296.401,129.876 296.409,192.261 296.417 C 254.191 296.425,251.887 296.489,254.225 294.696 C 255.106 294.020,256.390 293.362,257.078 293.233 C 257.928 293.073,258.422 292.752,258.621 292.229 C 258.940 291.390,259.678 290.685,260.828 290.120 C 261.233 289.921,261.832 289.225,262.159 288.573 C 262.485 287.921,263.111 287.200,263.549 286.970 C 264.070 286.698,264.548 285.913,264.928 284.708 C 265.248 283.694,266.032 282.293,266.672 281.595 C 267.311 280.897,268.031 279.622,268.272 278.762 C 268.513 277.902,269.215 276.646,269.833 275.971 C 270.452 275.296,271.124 274.083,271.327 273.275 C 271.531 272.467,272.144 271.359,272.691 270.813 C 273.238 270.267,273.963 268.968,274.302 267.928 C 274.641 266.887,275.336 265.646,275.846 265.169 C 276.356 264.693,276.885 263.919,277.022 263.450 C 277.539 261.671,278.553 259.817,279.415 259.074 C 279.907 258.649,280.310 258.082,280.310 257.812 C 280.310 256.838,281.705 254.097,282.716 253.087 C 283.284 252.519,283.749 251.697,283.749 251.260 C 283.749 250.824,284.415 249.482,285.230 248.277 C 286.045 247.073,286.894 245.457,287.117 244.686 C 287.368 243.823,287.844 243.114,288.357 242.839 C 288.841 242.580,289.443 241.725,289.793 240.801 C 290.512 238.899,291.270 237.642,292.044 237.068 C 292.356 236.836,292.720 236.069,292.852 235.364 C 293.162 233.713,294.145 231.858,295.255 230.832 C 295.737 230.387,296.131 229.749,296.131 229.414 C 296.131 228.476,297.447 225.720,297.996 225.509 C 298.528 225.305,299.378 223.617,299.719 222.087 C 299.837 221.560,300.251 220.864,300.639 220.539 C 301.443 219.867,302.456 218.007,302.803 216.566 C 302.932 216.029,303.405 215.249,303.855 214.833 C 304.305 214.416,305.007 213.082,305.416 211.870 C 306.082 209.892,307.119 208.426,307.853 208.426 C 308.000 208.426,308.296 207.577,308.512 206.538 C 308.804 205.129,309.247 204.282,310.256 203.200 C 310.999 202.403,311.608 201.451,311.608 201.085 C 311.608 200.137,313.026 197.422,313.713 197.055 C 314.031 196.884,314.563 195.881,314.895 194.826 C 315.227 193.770,315.918 192.459,316.430 191.911 C 316.941 191.362,317.714 189.967,318.147 188.810 C 318.580 187.653,319.262 186.491,319.663 186.229 C 320.478 185.695,321.010 184.049,321.604 180.224 C 321.825 178.805,322.121 177.489,322.264 177.300 C 322.741 176.666,322.932 173.533,322.589 171.969 C 322.402 171.118,321.966 168.865,321.620 166.963 C 320.950 163.285,320.515 162.135,319.482 161.307 C 319.128 161.023,318.514 159.870,318.119 158.744 C 317.723 157.618,317.125 156.457,316.789 156.164 C 315.998 155.475,314.703 152.929,314.703 152.062 C 314.703 151.692,314.093 150.754,313.348 149.978 C 312.332 148.921,311.933 148.173,311.757 147.000 C 311.628 146.138,311.298 145.251,311.024 145.029 C 309.539 143.825,309.160 143.255,308.614 141.402 C 308.190 139.965,307.737 139.183,307.069 138.733 C 306.543 138.380,306.024 137.638,305.901 137.063 C 305.598 135.657,304.813 134.139,303.853 133.104 C 303.414 132.631,302.797 131.470,302.483 130.525 C 302.169 129.579,301.478 128.340,300.947 127.773 C 300.417 127.206,299.706 125.850,299.369 124.762 C 299.001 123.574,298.449 122.581,297.990 122.281 C 297.048 121.663,296.269 120.152,295.964 118.349 C 295.811 117.441,295.450 116.797,294.887 116.428 C 293.959 115.820,293.251 114.463,292.687 112.210 C 292.486 111.406,292.172 110.748,291.990 110.748 C 291.321 110.748,290.396 109.454,289.965 107.916 C 289.722 107.047,289.079 105.910,288.536 105.390 C 287.992 104.869,287.379 103.889,287.172 103.211 C 286.610 101.367,286.054 100.310,285.381 99.807 C 284.633 99.249,283.749 97.583,283.749 96.732 C 283.749 95.715,282.944 94.256,282.262 94.035 C 281.596 93.820,280.310 91.204,280.310 90.064 C 280.310 89.691,279.863 88.968,279.318 88.459 C 278.124 87.344,277.358 85.899,277.029 84.142 C 276.864 83.263,276.544 82.748,276.046 82.559 C 275.250 82.256,274.743 81.413,274.105 79.331 C 273.882 78.603,273.267 77.595,272.738 77.089 C 272.169 76.545,271.543 75.367,271.204 74.199 C 270.888 73.114,270.489 72.227,270.316 72.227 C 269.779 72.227,268.330 69.714,268.084 68.356 C 267.939 67.556,267.480 66.752,266.877 66.245 C 265.977 65.488,264.836 63.444,264.333 61.688 C 264.217 61.283,263.829 60.875,263.471 60.781 C 263.113 60.687,262.419 59.819,261.929 58.852 C 261.381 57.772,260.808 57.090,260.441 57.083 C 259.634 57.068,258.790 56.383,258.516 55.521 C 258.359 55.026,257.589 54.567,255.973 54.004 C 254.543 53.506,253.294 52.801,252.714 52.166 L 251.774 51.135 245.491 51.015 C 242.036 50.949,237.661 50.858,235.770 50.813 C 233.878 50.768,208.960 50.810,180.396 50.907 M233.534 142.002 C 233.534 142.166,234.192 142.486,234.996 142.713 C 238.333 143.654,238.351 143.718,238.341 154.664 C 238.330 166.562,238.110 167.524,235.082 168.915 C 233.769 169.517,231.668 169.546,189.338 169.542 L 144.970 169.539 144.110 168.824 L 143.250 168.109 143.151 156.231 C 143.038 142.652,142.964 143.000,146.053 142.537 C 146.881 142.413,147.643 142.174,147.746 142.007 C 147.992 141.609,233.534 141.604,233.534 142.002 M218.315 153.289 C 216.574 154.192,216.401 154.660,216.892 157.117 C 217.374 159.529,222.350 159.201,223.400 156.687 C 224.154 154.883,224.056 154.625,222.161 153.448 C 220.140 152.191,220.408 152.202,218.315 153.289 M234.169 178.028 C 237.879 179.087,238.357 180.555,238.331 190.817 C 238.302 202.602,238.099 203.345,234.643 204.322 C 233.834 204.551,233.090 204.871,232.989 205.034 C 232.747 205.425,148.334 205.423,148.093 205.032 C 147.991 204.867,147.102 204.655,146.117 204.560 C 142.989 204.259,143.077 204.635,143.083 191.621 C 143.089 179.272,143.116 179.093,145.147 178.074 C 146.920 177.185,231.063 177.140,234.169 178.028 M217.455 188.810 C 216.388 189.270,216.350 193.293,217.413 193.293 C 217.585 193.293,218.347 193.685,219.105 194.163 L 220.483 195.033 221.592 194.214 C 222.201 193.764,222.971 193.300,223.302 193.183 C 223.954 192.953,224.172 190.122,223.606 189.229 C 223.247 188.662,218.541 188.341,217.455 188.810 " stroke="none" fill="#5282f0" fill-rule="evenodd"></path><path id="path1" d="M0.000 171.969 L 0.000 343.938 200.000 343.938 L 400.000 343.938 400.000 171.969 L 400.000 0.000 200.000 0.000 L 0.000 0.000 0.000 171.969 M234.367 46.757 C 235.796 47.740,235.979 47.773,240.619 47.887 C 243.336 47.954,246.514 48.250,247.979 48.573 C 249.398 48.885,251.592 49.239,252.856 49.358 C 255.131 49.574,256.922 50.512,256.922 51.488 C 256.922 51.704,257.425 51.986,258.040 52.116 C 259.275 52.378,260.705 53.516,260.705 54.239 C 260.705 54.494,261.077 54.845,261.532 55.018 C 262.572 55.413,263.800 56.710,263.803 57.417 C 263.804 57.712,264.271 58.219,264.842 58.544 C 265.468 58.900,266.138 59.739,266.533 60.662 C 266.894 61.502,267.416 62.320,267.695 62.479 C 268.421 62.895,269.536 64.975,269.785 66.380 C 269.913 67.104,270.465 68.037,271.169 68.721 C 271.979 69.508,272.469 70.408,272.759 71.644 C 273.068 72.957,273.486 73.688,274.337 74.402 C 274.974 74.936,275.495 75.632,275.497 75.949 C 275.498 76.267,275.730 76.970,276.012 77.511 C 276.295 78.053,276.526 78.693,276.526 78.934 C 276.526 79.174,276.899 79.615,277.355 79.914 C 277.811 80.213,278.364 81.043,278.583 81.759 C 279.153 83.621,279.670 84.586,280.678 85.665 C 281.164 86.186,281.815 87.399,282.126 88.360 C 282.448 89.358,283.203 90.621,283.885 91.302 C 284.758 92.176,285.143 92.920,285.315 94.073 C 285.540 95.573,286.185 96.647,286.860 96.647 C 287.267 96.647,288.419 99.241,288.692 100.776 C 288.853 101.675,289.165 102.095,289.921 102.430 C 290.734 102.790,291.046 103.262,291.496 104.809 C 291.847 106.018,292.445 107.101,293.095 107.708 C 293.670 108.245,294.351 109.403,294.622 110.305 C 294.892 111.200,295.559 112.401,296.105 112.974 C 296.713 113.612,297.329 114.854,297.695 116.179 C 298.056 117.486,298.546 118.479,298.930 118.684 C 299.727 119.111,300.810 121.196,301.136 122.932 C 301.289 123.748,301.609 124.309,301.975 124.405 C 302.687 124.592,303.927 126.811,304.234 128.453 C 304.370 129.174,304.890 130.014,305.563 130.597 C 306.305 131.240,306.820 132.123,307.125 133.276 C 307.393 134.290,308.041 135.490,308.705 136.199 C 309.325 136.862,310.009 138.076,310.226 138.899 C 310.456 139.770,311.113 140.886,311.800 141.573 C 312.588 142.362,313.051 143.208,313.199 144.132 C 313.332 144.961,313.823 145.944,314.431 146.594 C 315.648 147.898,316.767 150.004,316.767 150.995 C 316.767 151.391,317.209 152.132,317.749 152.642 C 318.888 153.717,319.748 155.362,320.072 157.087 C 320.219 157.870,320.532 158.361,320.955 158.472 C 321.766 158.684,322.389 159.880,322.966 162.339 C 323.210 163.379,323.855 164.785,324.399 165.463 C 326.752 168.395,326.298 181.899,323.814 182.852 C 323.570 182.946,323.180 184.033,322.947 185.268 C 322.612 187.046,322.282 187.755,321.365 188.672 C 320.728 189.310,320.205 190.030,320.203 190.272 C 320.196 191.138,318.532 194.276,317.900 194.615 C 317.525 194.816,316.993 195.842,316.620 197.085 C 316.185 198.538,315.562 199.654,314.655 200.608 C 313.870 201.434,313.328 202.341,313.328 202.830 C 313.328 203.897,312.816 204.851,311.386 206.450 C 310.752 207.160,310.232 208.060,310.232 208.450 C 310.232 209.358,309.695 210.373,308.465 211.789 C 307.926 212.408,307.314 213.597,307.105 214.431 C 306.860 215.400,306.302 216.329,305.554 217.010 C 304.911 217.595,304.385 218.312,304.385 218.603 C 304.385 219.727,302.880 222.594,302.143 222.874 C 301.595 223.083,301.323 223.558,301.157 224.596 C 300.865 226.420,299.746 228.632,299.040 228.778 C 298.710 228.847,298.166 229.878,297.650 231.413 C 297.071 233.136,296.477 234.210,295.779 234.797 C 294.668 235.732,294.400 237.388,295.138 238.766 C 295.557 239.549,295.646 239.452,293.210 240.874 C 292.203 241.462,291.743 242.011,291.483 242.937 C 291.273 243.684,290.705 244.501,290.091 244.937 C 289.349 245.464,288.891 246.225,288.482 247.614 C 287.911 249.552,286.918 251.075,286.225 251.075 C 285.843 251.075,285.680 251.486,285.280 253.466 C 284.995 254.871,283.748 256.911,283.170 256.917 C 282.947 256.920,282.670 257.270,282.556 257.696 C 281.860 260.297,281.470 261.134,280.451 262.214 C 279.826 262.877,279.146 264.043,278.941 264.804 C 278.736 265.566,278.136 266.663,277.607 267.242 C 277.078 267.821,276.305 269.257,275.890 270.433 C 275.344 271.976,274.864 272.726,274.162 273.127 C 273.423 273.550,273.133 274.034,272.956 275.141 C 272.646 277.083,271.857 278.538,270.872 278.987 C 270.248 279.271,269.978 279.801,269.677 281.331 C 269.372 282.879,269.029 283.544,268.098 284.392 C 267.443 284.987,266.803 285.899,266.675 286.418 C 266.362 287.689,265.583 288.842,264.887 289.063 C 264.573 289.162,264.105 289.721,263.847 290.304 C 263.578 290.910,262.874 291.605,262.202 291.925 C 261.552 292.235,260.942 292.827,260.835 293.250 C 260.710 293.751,260.011 294.315,258.812 294.883 C 257.788 295.368,256.884 296.053,256.762 296.435 C 256.497 297.272,255.273 297.658,251.247 298.174 C 249.544 298.392,247.455 298.818,246.604 299.121 C 245.582 299.484,243.418 299.724,240.241 299.827 C 235.823 299.971,235.335 300.052,234.331 300.809 C 232.971 301.833,233.002 301.835,231.503 300.688 L 230.267 299.742 182.803 299.570 C 155.418 299.471,135.135 299.267,134.857 299.087 C 134.591 298.916,132.424 298.488,130.041 298.136 C 125.914 297.525,125.659 297.440,124.646 296.338 C 124.062 295.701,123.210 295.064,122.755 294.923 C 122.299 294.782,121.228 294.018,120.375 293.226 C 119.521 292.434,118.590 291.641,118.306 291.465 C 117.340 290.865,114.947 287.863,114.722 286.969 C 114.600 286.480,113.979 285.589,113.343 284.989 C 112.570 284.260,111.997 283.247,111.615 281.932 C 111.300 280.851,110.937 279.966,110.806 279.966 C 110.187 279.966,108.684 278.130,108.684 277.373 C 108.684 276.900,108.176 275.960,107.530 275.237 C 106.134 273.676,105.748 272.949,105.458 271.341 C 105.330 270.634,104.798 269.692,104.203 269.121 C 103.521 268.468,102.934 267.342,102.479 265.814 C 101.995 264.191,101.587 263.434,101.116 263.284 C 100.384 263.052,99.294 260.887,98.929 258.940 C 98.776 258.126,98.430 257.592,97.896 257.349 C 97.340 257.096,96.823 256.256,96.216 254.618 C 95.734 253.317,94.878 251.758,94.313 251.154 C 93.748 250.549,93.186 249.521,93.063 248.868 C 92.938 248.198,92.343 247.184,91.697 246.538 C 90.970 245.811,90.347 244.686,89.990 243.457 C 89.531 241.878,89.262 241.478,88.536 241.296 C 86.801 240.861,85.965 239.617,86.210 237.834 C 86.407 236.391,86.332 236.149,85.377 235.149 C 84.291 234.012,83.233 231.849,83.233 230.765 C 83.233 230.424,82.797 229.785,82.264 229.346 C 81.716 228.894,80.935 227.614,80.465 226.397 C 80.008 225.215,79.521 224.248,79.384 224.248 C 79.039 224.248,77.511 221.513,77.269 220.461 C 77.160 219.986,76.541 219.020,75.894 218.313 C 75.200 217.556,74.549 216.362,74.308 215.405 C 74.048 214.373,73.479 213.373,72.746 212.661 C 71.914 211.853,71.473 211.006,71.164 209.625 C 70.831 208.136,70.521 207.583,69.775 207.142 C 69.033 206.703,68.637 206.002,68.033 204.059 C 67.522 202.410,67.042 201.477,66.641 201.349 C 65.987 201.142,65.238 199.887,64.883 198.402 C 64.763 197.901,64.149 196.873,63.518 196.118 C 62.887 195.363,62.098 193.877,61.764 192.815 C 61.430 191.754,60.968 190.886,60.736 190.886 C 60.134 190.886,58.913 188.564,58.466 186.570 C 58.256 185.633,57.802 184.557,57.457 184.179 C 55.637 182.181,55.546 181.637,55.553 172.829 C 55.559 164.113,55.851 162.545,57.592 161.877 C 57.848 161.779,58.232 160.887,58.445 159.894 C 58.882 157.858,59.810 156.184,60.858 155.543 C 61.247 155.305,61.565 154.774,61.565 154.363 C 61.565 153.490,62.944 150.301,63.321 150.301 C 63.914 150.301,64.645 149.155,65.141 147.447 C 65.432 146.446,66.065 145.256,66.546 144.803 C 67.028 144.351,67.748 143.087,68.146 141.994 C 68.562 140.853,69.215 139.782,69.680 139.477 C 70.201 139.136,70.694 138.244,71.063 136.973 C 71.442 135.671,72.015 134.647,72.746 133.965 C 73.518 133.246,73.986 132.377,74.284 131.105 C 74.578 129.855,75.068 128.930,75.835 128.181 C 76.452 127.578,77.073 126.548,77.216 125.890 C 77.496 124.596,78.936 122.098,79.402 122.098 C 79.690 122.098,80.598 120.194,81.001 118.743 C 81.120 118.316,81.583 117.532,82.031 117.000 C 82.478 116.468,83.101 115.347,83.415 114.508 C 84.330 112.061,84.682 111.459,85.315 111.258 C 85.642 111.154,86.003 110.803,86.116 110.479 C 86.229 110.154,86.542 109.218,86.813 108.399 C 87.353 106.762,88.247 105.589,88.955 105.589 C 89.206 105.589,89.481 105.241,89.568 104.815 C 90.058 102.398,90.227 101.877,90.855 100.860 C 91.234 100.245,91.738 99.742,91.975 99.742 C 92.212 99.742,92.660 98.829,92.971 97.713 C 93.312 96.485,93.921 95.297,94.514 94.704 C 95.053 94.164,95.778 92.949,96.126 92.003 C 96.474 91.058,97.174 89.819,97.682 89.252 C 98.190 88.684,98.963 87.238,99.399 86.039 C 99.899 84.667,100.461 83.735,100.914 83.529 C 101.406 83.304,101.886 82.413,102.431 80.710 C 103.033 78.830,103.476 78.054,104.236 77.545 C 104.790 77.174,105.244 76.627,105.244 76.331 C 105.247 74.779,106.320 72.360,107.292 71.714 C 108.069 71.198,108.376 70.676,108.538 69.599 C 108.687 68.606,109.164 67.714,110.103 66.677 C 110.846 65.856,111.603 64.628,111.787 63.948 C 111.970 63.268,112.648 62.230,113.294 61.643 C 113.939 61.055,114.572 60.101,114.699 59.522 C 114.826 58.943,115.062 58.469,115.223 58.469 C 115.385 58.469,115.603 58.199,115.709 57.868 C 115.814 57.537,116.592 56.724,117.438 56.062 C 118.284 55.400,118.982 54.740,118.990 54.595 C 119.009 54.206,121.145 52.326,121.832 52.094 C 122.158 51.984,122.961 51.374,123.615 50.738 C 124.602 49.780,125.148 49.547,126.805 49.378 C 127.905 49.266,130.198 48.906,131.900 48.578 C 134.728 48.034,139.103 47.975,182.404 47.893 L 229.812 47.803 231.243 46.789 C 232.990 45.551,232.619 45.555,234.367 46.757 M146.433 144.704 C 145.445 144.808,145.100 145.019,144.951 145.610 C 144.651 146.807,144.934 166.030,145.256 166.352 C 145.414 166.509,165.157 166.681,189.129 166.733 L 232.716 166.828 234.187 165.428 L 235.659 164.028 235.505 155.531 C 235.335 146.093,235.274 145.718,233.787 144.976 C 232.804 144.486,150.953 144.231,146.433 144.704 M223.814 150.520 C 225.302 151.621,225.771 152.916,225.739 155.831 C 225.704 159.075,225.386 159.676,223.318 160.415 C 222.411 160.739,221.414 161.140,221.103 161.307 C 220.501 161.631,216.259 160.334,215.527 159.603 C 214.621 158.698,214.837 153.344,215.842 151.814 C 217.342 149.530,221.553 148.847,223.814 150.520 M147.893 180.710 C 147.420 180.997,146.774 181.236,146.456 181.243 C 144.870 181.277,144.798 181.746,144.798 192.102 C 144.798 201.405,144.829 201.884,145.463 202.223 C 146.560 202.811,233.189 202.689,233.966 202.099 C 235.239 201.133,235.590 198.685,235.594 190.734 L 235.598 183.188 234.150 181.878 L 232.702 180.567 198.436 180.567 C 179.589 180.567,160.701 180.482,156.461 180.378 C 149.948 180.218,148.620 180.270,147.893 180.710 M222.597 186.459 C 229.395 188.524,225.678 199.084,218.739 197.419 C 215.925 196.744,214.947 195.102,214.985 191.121 C 215.021 187.474,215.358 187.118,220.067 185.761 C 220.132 185.742,221.271 186.056,222.597 186.459 " stroke="none" fill="#fbfbfc" fill-rule="evenodd"></path><path id="path2" d="M231.243 46.789 L 229.812 47.803 182.404 47.893 C 139.103 47.975,134.728 48.034,131.900 48.578 C 130.198 48.906,127.905 49.266,126.805 49.378 C 125.148 49.547,124.602 49.780,123.615 50.738 C 122.961 51.374,122.158 51.984,121.832 52.094 C 121.145 52.326,119.009 54.206,118.990 54.595 C 118.982 54.740,118.284 55.400,117.438 56.062 C 116.592 56.724,115.814 57.537,115.709 57.868 C 115.603 58.199,115.385 58.469,115.223 58.469 C 115.062 58.469,114.826 58.943,114.699 59.522 C 114.572 60.101,113.939 61.055,113.294 61.643 C 112.648 62.230,111.970 63.268,111.787 63.948 C 111.603 64.628,110.846 65.856,110.103 66.677 C 109.164 67.714,108.687 68.606,108.538 69.599 C 108.376 70.676,108.069 71.198,107.292 71.714 C 106.320 72.360,105.247 74.779,105.244 76.331 C 105.244 76.627,104.790 77.174,104.236 77.545 C 103.476 78.054,103.033 78.830,102.431 80.710 C 101.886 82.413,101.406 83.304,100.914 83.529 C 100.461 83.735,99.899 84.667,99.399 86.039 C 98.963 87.238,98.190 88.684,97.682 89.252 C 97.174 89.819,96.474 91.058,96.126 92.003 C 95.778 92.949,95.053 94.164,94.514 94.704 C 93.921 95.297,93.312 96.485,92.971 97.713 C 92.660 98.829,92.212 99.742,91.975 99.742 C 91.738 99.742,91.234 100.245,90.855 100.860 C 90.227 101.877,90.058 102.398,89.568 104.815 C 89.481 105.241,89.206 105.589,88.955 105.589 C 88.247 105.589,87.353 106.762,86.813 108.399 C 86.542 109.218,86.229 110.154,86.116 110.479 C 86.003 110.803,85.642 111.154,85.315 111.258 C 84.682 111.459,84.330 112.061,83.415 114.508 C 83.101 115.347,82.478 116.468,82.031 117.000 C 81.583 117.532,81.120 118.316,81.001 118.743 C 80.598 120.194,79.690 122.098,79.402 122.098 C 78.936 122.098,77.496 124.596,77.216 125.890 C 77.073 126.548,76.452 127.578,75.835 128.181 C 75.068 128.930,74.578 129.855,74.284 131.105 C 73.986 132.377,73.518 133.246,72.746 133.965 C 72.015 134.647,71.442 135.671,71.063 136.973 C 70.694 138.244,70.201 139.136,69.680 139.477 C 69.215 139.782,68.562 140.853,68.146 141.994 C 67.748 143.087,67.028 144.351,66.546 144.803 C 66.065 145.256,65.432 146.446,65.141 147.447 C 64.645 149.155,63.914 150.301,63.321 150.301 C 62.944 150.301,61.565 153.490,61.565 154.363 C 61.565 154.774,61.247 155.305,60.858 155.543 C 59.810 156.184,58.882 157.858,58.445 159.894 C 58.232 160.887,57.848 161.779,57.592 161.877 C 55.851 162.545,55.559 164.113,55.553 172.829 C 55.546 181.637,55.637 182.181,57.457 184.179 C 57.802 184.557,58.256 185.633,58.466 186.570 C 58.913 188.564,60.134 190.886,60.736 190.886 C 60.968 190.886,61.430 191.754,61.764 192.815 C 62.098 193.877,62.887 195.363,63.518 196.118 C 64.149 196.873,64.763 197.901,64.883 198.402 C 65.238 199.887,65.987 201.142,66.641 201.349 C 67.042 201.477,67.522 202.410,68.033 204.059 C 68.637 206.002,69.033 206.703,69.775 207.142 C 70.521 207.583,70.831 208.136,71.164 209.625 C 71.473 211.006,71.914 211.853,72.746 212.661 C 73.479 213.373,74.048 214.373,74.308 215.405 C 74.549 216.362,75.200 217.556,75.894 218.313 C 76.541 219.020,77.160 219.986,77.269 220.461 C 77.511 221.513,79.039 224.248,79.384 224.248 C 79.521 224.248,80.008 225.215,80.465 226.397 C 80.935 227.614,81.716 228.894,82.264 229.346 C 82.797 229.785,83.233 230.424,83.233 230.765 C 83.233 231.849,84.291 234.012,85.377 235.149 C 86.332 236.149,86.407 236.391,86.210 237.834 C 85.965 239.617,86.801 240.861,88.536 241.296 C 89.262 241.478,89.531 241.878,89.990 243.457 C 90.347 244.686,90.970 245.811,91.697 246.538 C 92.343 247.184,92.938 248.198,93.063 248.868 C 93.186 249.521,93.748 250.549,94.313 251.154 C 94.878 251.758,95.734 253.317,96.216 254.618 C 96.823 256.256,97.340 257.096,97.896 257.349 C 98.430 257.592,98.776 258.126,98.929 258.940 C 99.294 260.887,100.384 263.052,101.116 263.284 C 101.587 263.434,101.995 264.191,102.479 265.814 C 102.934 267.342,103.521 268.468,104.203 269.121 C 104.798 269.692,105.330 270.634,105.458 271.341 C 105.748 272.949,106.134 273.676,107.530 275.237 C 108.176 275.960,108.684 276.900,108.684 277.373 C 108.684 278.130,110.187 279.966,110.806 279.966 C 110.937 279.966,111.300 280.851,111.615 281.932 C 111.997 283.247,112.570 284.260,113.343 284.989 C 113.979 285.589,114.600 286.480,114.722 286.969 C 114.947 287.863,117.340 290.865,118.306 291.465 C 118.590 291.641,119.521 292.434,120.375 293.226 C 121.228 294.018,122.299 294.782,122.755 294.923 C 123.210 295.064,124.062 295.701,124.646 296.338 C 125.659 297.440,125.914 297.525,130.041 298.136 C 132.424 298.488,134.591 298.916,134.857 299.087 C 135.135 299.267,155.418 299.471,182.803 299.570 L 230.267 299.742 231.503 300.688 C 233.002 301.835,232.971 301.833,234.331 300.809 C 235.335 300.052,235.823 299.971,240.241 299.827 C 243.418 299.724,245.582 299.484,246.604 299.121 C 247.455 298.818,249.544 298.392,251.247 298.174 C 255.273 297.658,256.497 297.272,256.762 296.435 C 256.884 296.053,257.788 295.368,258.812 294.883 C 260.011 294.315,260.710 293.751,260.835 293.250 C 260.942 292.827,261.552 292.235,262.202 291.925 C 262.874 291.605,263.578 290.910,263.847 290.304 C 264.105 289.721,264.573 289.162,264.887 289.063 C 265.583 288.842,266.362 287.689,266.675 286.418 C 266.803 285.899,267.443 284.987,268.098 284.392 C 269.029 283.544,269.372 282.879,269.677 281.331 C 269.978 279.801,270.248 279.271,270.872 278.987 C 271.857 278.538,272.646 277.083,272.956 275.141 C 273.133 274.034,273.423 273.550,274.162 273.127 C 274.864 272.726,275.344 271.976,275.890 270.433 C 276.305 269.257,277.078 267.821,277.607 267.242 C 278.136 266.663,278.736 265.566,278.941 264.804 C 279.146 264.043,279.826 262.877,280.451 262.214 C 281.470 261.134,281.860 260.297,282.556 257.696 C 282.670 257.270,282.947 256.920,283.170 256.917 C 283.748 256.911,284.995 254.871,285.280 253.466 C 285.680 251.486,285.843 251.075,286.225 251.075 C 286.918 251.075,287.911 249.552,288.482 247.614 C 288.891 246.225,289.349 245.464,290.091 244.937 C 290.705 244.501,291.273 243.684,291.483 242.937 C 291.743 242.011,292.203 241.462,293.210 240.874 C 295.646 239.452,295.557 239.549,295.138 238.766 C 294.400 237.388,294.668 235.732,295.779 234.797 C 296.477 234.210,297.071 233.136,297.650 231.413 C 298.166 229.878,298.710 228.847,299.040 228.778 C 299.746 228.632,300.865 226.420,301.157 224.596 C 301.323 223.558,301.595 223.083,302.143 222.874 C 302.880 222.594,304.385 219.727,304.385 218.603 C 304.385 218.312,304.911 217.595,305.554 217.010 C 306.302 216.329,306.860 215.400,307.105 214.431 C 307.314 213.597,307.926 212.408,308.465 211.789 C 309.695 210.373,310.232 209.358,310.232 208.450 C 310.232 208.060,310.752 207.160,311.386 206.450 C 312.816 204.851,313.328 203.897,313.328 202.830 C 313.328 202.341,313.870 201.434,314.655 200.608 C 315.562 199.654,316.185 198.538,316.620 197.085 C 316.993 195.842,317.525 194.816,317.900 194.615 C 318.532 194.276,320.196 191.138,320.203 190.272 C 320.205 190.030,320.728 189.310,321.365 188.672 C 322.282 187.755,322.612 187.046,322.947 185.268 C 323.180 184.033,323.570 182.946,323.814 182.852 C 326.298 181.899,326.752 168.395,324.399 165.463 C 323.855 164.785,323.210 163.379,322.966 162.339 C 322.389 159.880,321.766 158.684,320.955 158.472 C 320.532 158.361,320.219 157.870,320.072 157.087 C 319.748 155.362,318.888 153.717,317.749 152.642 C 317.209 152.132,316.767 151.391,316.767 150.995 C 316.767 150.004,315.648 147.898,314.431 146.594 C 313.823 145.944,313.332 144.961,313.199 144.132 C 313.051 143.208,312.588 142.362,311.800 141.573 C 311.113 140.886,310.456 139.770,310.226 138.899 C 310.009 138.076,309.325 136.862,308.705 136.199 C 308.041 135.490,307.393 134.290,307.125 133.276 C 306.820 132.123,306.305 131.240,305.563 130.597 C 304.890 130.014,304.370 129.174,304.234 128.453 C 303.927 126.811,302.687 124.592,301.975 124.405 C 301.609 124.309,301.289 123.748,301.136 122.932 C 300.810 121.196,299.727 119.111,298.930 118.684 C 298.546 118.479,298.056 117.486,297.695 116.179 C 297.329 114.854,296.713 113.612,296.105 112.974 C 295.559 112.401,294.892 111.200,294.622 110.305 C 294.351 109.403,293.670 108.245,293.095 107.708 C 292.445 107.101,291.847 106.018,291.496 104.809 C 291.046 103.262,290.734 102.790,289.921 102.430 C 289.165 102.095,288.853 101.675,288.692 100.776 C 288.419 99.241,287.267 96.647,286.860 96.647 C 286.185 96.647,285.540 95.573,285.315 94.073 C 285.143 92.920,284.758 92.176,283.885 91.302 C 283.203 90.621,282.448 89.358,282.126 88.360 C 281.815 87.399,281.164 86.186,280.678 85.665 C 279.670 84.586,279.153 83.621,278.583 81.759 C 278.364 81.043,277.811 80.213,277.355 79.914 C 276.899 79.615,276.526 79.174,276.526 78.934 C 276.526 78.693,276.295 78.053,276.012 77.511 C 275.730 76.970,275.498 76.267,275.497 75.949 C 275.495 75.632,274.974 74.936,274.337 74.402 C 273.486 73.688,273.068 72.957,272.759 71.644 C 272.469 70.408,271.979 69.508,271.169 68.721 C 270.465 68.037,269.913 67.104,269.785 66.380 C 269.536 64.975,268.421 62.895,267.695 62.479 C 267.416 62.320,266.894 61.502,266.533 60.662 C 266.138 59.739,265.468 58.900,264.842 58.544 C 264.271 58.219,263.804 57.712,263.803 57.417 C 263.800 56.710,262.572 55.413,261.532 55.018 C 261.077 54.845,260.705 54.494,260.705 54.239 C 260.705 53.516,259.275 52.378,258.040 52.116 C 257.425 51.986,256.922 51.704,256.922 51.488 C 256.922 50.512,255.131 49.574,252.856 49.358 C 251.592 49.239,249.398 48.885,247.979 48.573 C 246.514 48.250,243.336 47.954,240.619 47.887 C 235.979 47.773,235.796 47.740,234.367 46.757 C 232.619 45.555,232.990 45.551,231.243 46.789 M245.548 49.703 C 250.213 49.874,254.858 50.803,254.858 51.564 C 254.858 51.724,255.671 52.252,256.665 52.738 C 258.364 53.569,260.337 55.346,263.964 59.312 C 264.820 60.248,265.520 61.189,265.520 61.404 C 265.520 61.619,266.116 62.645,266.843 63.684 C 267.571 64.723,268.557 66.425,269.034 67.468 C 269.511 68.510,270.168 69.674,270.494 70.054 C 270.819 70.434,271.448 71.639,271.892 72.730 C 272.336 73.822,273.011 75.047,273.391 75.452 C 273.772 75.858,274.483 77.092,274.971 78.196 C 275.459 79.300,276.300 80.769,276.839 81.460 C 277.379 82.151,278.096 83.491,278.433 84.437 C 278.770 85.383,279.466 86.621,279.981 87.188 C 280.495 87.756,281.106 88.839,281.338 89.596 C 281.570 90.353,282.203 91.537,282.744 92.229 C 283.286 92.920,284.128 94.389,284.616 95.492 C 285.104 96.596,285.794 97.811,286.149 98.191 C 286.504 98.571,287.137 99.799,287.555 100.920 C 287.973 102.041,288.660 103.279,289.081 103.672 C 289.749 104.293,291.316 107.213,291.316 107.837 C 291.316 107.959,291.832 108.663,292.464 109.401 C 293.096 110.139,293.805 111.402,294.040 112.207 C 294.275 113.013,294.926 114.251,295.486 114.959 C 296.046 115.667,296.726 116.877,296.998 117.647 C 297.445 118.914,298.675 120.973,299.246 121.410 C 299.369 121.505,299.668 122.201,299.910 122.958 C 300.152 123.715,300.877 125.059,301.521 125.946 C 302.166 126.833,302.922 128.230,303.202 129.052 C 303.482 129.874,304.086 130.951,304.544 131.445 C 305.003 131.939,305.790 133.328,306.293 134.530 C 306.797 135.732,307.494 136.985,307.843 137.314 C 308.439 137.877,308.684 138.329,310.040 141.359 C 310.336 142.021,311.030 143.181,311.582 143.938 C 312.134 144.695,312.664 145.702,312.760 146.177 C 312.855 146.652,313.463 147.736,314.109 148.585 C 314.756 149.434,315.486 150.739,315.731 151.485 C 315.976 152.231,316.463 153.149,316.814 153.526 C 317.603 154.373,318.831 156.692,318.831 157.336 C 318.831 157.599,319.393 158.552,320.080 159.452 C 320.810 160.408,321.668 162.174,322.140 163.692 C 322.586 165.123,323.192 166.718,323.488 167.237 C 324.913 169.738,324.907 177.247,323.477 180.114 C 323.178 180.714,322.580 182.415,322.148 183.895 C 321.627 185.683,321.006 186.977,320.299 187.748 C 319.713 188.387,319.058 189.609,318.843 190.463 C 318.628 191.317,317.930 192.653,317.293 193.431 C 316.655 194.209,315.911 195.491,315.639 196.280 C 315.368 197.068,314.687 198.306,314.127 199.029 C 313.567 199.752,312.850 201.040,312.533 201.892 C 312.216 202.743,311.573 203.884,311.104 204.427 C 310.635 204.971,310.152 205.744,310.029 206.147 C 309.558 207.695,308.489 209.781,308.034 210.044 C 307.585 210.302,306.728 211.993,305.760 214.531 C 305.525 215.146,305.202 215.649,305.040 215.649 C 304.699 215.649,303.782 217.276,302.980 219.306 C 302.671 220.088,301.945 221.326,301.367 222.058 C 300.789 222.789,300.168 223.940,299.987 224.616 C 299.807 225.292,299.118 226.553,298.457 227.420 C 297.795 228.287,297.155 229.391,297.033 229.874 C 296.759 230.966,295.468 233.190,295.108 233.190 C 294.961 233.190,294.484 234.300,294.048 235.656 C 293.612 237.013,292.857 238.599,292.371 239.182 C 291.885 239.764,291.203 240.802,290.854 241.488 C 290.506 242.174,289.784 243.215,289.249 243.800 C 288.714 244.385,287.954 245.727,287.560 246.781 C 287.165 247.835,286.522 249.039,286.129 249.456 C 285.415 250.216,284.093 252.802,284.093 253.439 C 284.093 253.625,283.894 253.982,283.652 254.232 C 282.729 255.182,281.764 256.800,281.338 258.113 C 281.095 258.862,280.452 259.945,279.911 260.520 C 279.369 261.095,278.672 262.361,278.362 263.335 C 278.052 264.308,277.362 265.572,276.828 266.143 C 276.294 266.715,275.565 267.951,275.208 268.891 C 274.851 269.831,274.095 271.198,273.528 271.929 C 272.960 272.661,272.146 274.152,271.717 275.243 C 271.288 276.335,270.740 277.341,270.498 277.479 C 270.255 277.617,269.565 278.808,268.962 280.126 C 268.360 281.444,267.437 283.069,266.912 283.738 C 266.386 284.406,265.838 285.340,265.694 285.813 C 265.550 286.285,264.745 287.446,263.905 288.392 C 263.065 289.338,262.272 290.234,262.143 290.383 C 260.758 291.987,257.768 294.397,256.938 294.579 C 256.362 294.706,255.890 294.949,255.890 295.120 C 255.890 296.815,249.276 297.824,238.349 297.795 C 234.850 297.786,208.925 297.679,180.739 297.557 L 129.493 297.334 127.897 296.589 C 127.019 296.179,126.190 295.663,126.053 295.443 C 125.917 295.222,125.128 294.752,124.300 294.397 C 123.472 294.042,122.241 293.242,121.564 292.619 C 118.494 289.795,116.176 287.274,115.759 286.303 C 115.510 285.722,114.832 284.707,114.253 284.048 C 113.674 283.388,112.997 282.179,112.748 281.359 C 112.499 280.540,111.852 279.391,111.310 278.806 C 110.767 278.221,109.865 276.742,109.305 275.519 C 108.745 274.296,108.080 273.132,107.828 272.933 C 107.302 272.518,105.933 270.011,105.933 269.463 C 105.933 269.261,105.339 268.176,104.613 267.050 C 103.887 265.925,103.122 264.503,102.913 263.890 C 102.703 263.277,102.072 262.194,101.509 261.483 C 100.947 260.771,100.294 259.530,100.059 258.725 C 99.824 257.919,99.150 256.681,98.562 255.973 C 97.974 255.265,97.281 254.067,97.022 253.310 C 96.763 252.554,96.122 251.388,95.598 250.720 C 95.073 250.051,94.182 248.498,93.619 247.267 C 93.055 246.037,92.377 244.850,92.112 244.630 C 91.847 244.410,91.184 243.296,90.638 242.153 C 90.092 241.011,89.364 239.987,89.022 239.878 C 88.603 239.746,88.157 238.868,87.663 237.209 C 87.258 235.850,86.555 234.336,86.099 233.846 C 85.644 233.356,84.954 232.117,84.566 231.095 C 84.178 230.072,83.362 228.616,82.754 227.859 C 82.146 227.102,81.461 225.840,81.232 225.053 C 81.004 224.267,80.362 223.137,79.807 222.542 C 79.252 221.948,78.693 221.121,78.566 220.705 C 78.069 219.073,76.986 216.982,76.553 216.816 C 76.302 216.719,75.666 215.605,75.139 214.339 C 74.613 213.073,73.910 211.728,73.578 211.350 C 73.245 210.972,72.552 209.733,72.038 208.598 C 71.524 207.463,70.752 206.115,70.323 205.603 C 69.894 205.090,69.270 203.929,68.937 203.023 C 68.603 202.117,67.997 200.989,67.590 200.516 C 66.457 199.201,65.806 198.034,65.547 196.854 C 65.417 196.264,64.801 195.183,64.178 194.451 C 63.554 193.720,62.842 192.502,62.596 191.745 C 62.349 190.989,61.636 189.699,61.012 188.880 C 60.388 188.060,59.624 186.518,59.314 185.453 C 59.005 184.387,58.262 182.581,57.665 181.440 L 56.578 179.364 56.578 173.001 L 56.578 166.638 57.854 164.058 C 58.555 162.640,59.361 160.820,59.645 160.015 C 59.928 159.210,60.614 157.972,61.169 157.264 C 61.724 156.555,62.373 155.361,62.611 154.610 C 62.849 153.858,63.215 153.063,63.423 152.842 C 64.441 151.762,64.906 151.013,65.604 149.329 C 66.022 148.321,66.803 146.929,67.341 146.234 C 67.878 145.539,68.594 144.227,68.932 143.319 C 69.269 142.411,69.964 141.210,70.476 140.650 C 70.987 140.090,71.690 138.821,72.036 137.829 C 72.383 136.838,73.024 135.641,73.460 135.168 C 73.896 134.695,74.655 133.399,75.146 132.289 C 75.636 131.179,76.416 129.775,76.877 129.170 C 77.339 128.565,77.938 127.442,78.209 126.674 C 78.480 125.907,79.236 124.578,79.890 123.722 C 80.543 122.866,81.185 121.738,81.316 121.217 C 81.447 120.695,82.147 119.441,82.872 118.428 C 83.597 117.416,84.286 116.073,84.404 115.444 C 84.522 114.814,85.158 113.669,85.818 112.899 C 86.477 112.129,87.016 111.399,87.016 111.276 C 87.016 110.695,88.444 108.026,89.394 106.831 C 89.978 106.096,90.456 105.288,90.456 105.036 C 90.456 104.513,91.267 103.016,92.765 100.774 C 93.333 99.923,93.893 98.832,94.008 98.351 C 94.123 97.870,94.745 96.787,95.390 95.944 C 96.036 95.101,96.758 93.792,96.994 93.035 C 97.230 92.279,97.930 91.034,98.548 90.269 C 99.166 89.504,99.861 88.248,100.091 87.479 C 100.321 86.710,100.955 85.605,101.498 85.023 C 102.042 84.442,102.804 83.118,103.191 82.082 C 103.579 81.046,104.354 79.622,104.914 78.917 C 105.475 78.212,105.933 77.493,105.933 77.320 C 105.933 76.774,107.290 73.999,107.672 73.763 C 107.873 73.638,108.573 72.436,109.228 71.091 C 109.883 69.746,110.731 68.312,111.114 67.905 C 111.496 67.497,112.117 66.356,112.492 65.367 C 112.868 64.379,113.649 63.081,114.228 62.482 C 114.807 61.883,115.487 60.924,115.739 60.351 C 116.238 59.215,122.910 52.628,123.578 52.613 C 123.804 52.608,124.598 52.143,125.341 51.581 C 126.084 51.019,126.984 50.559,127.341 50.559 C 127.698 50.559,128.328 50.365,128.741 50.129 C 129.329 49.793,140.573 49.660,180.396 49.519 C 230.617 49.341,236.103 49.356,245.548 49.703 M146.426 143.673 C 143.995 143.927,143.938 144.205,143.938 155.789 C 143.938 164.177,144.029 166.130,144.459 166.982 L 144.979 168.014 189.308 168.101 L 233.638 168.188 234.790 167.309 C 236.930 165.677,236.974 165.424,236.962 155.047 C 236.950 144.524,237.033 144.884,234.419 143.997 C 232.831 143.459,151.352 143.159,146.426 143.673 M233.787 144.976 C 235.274 145.718,235.335 146.093,235.505 155.531 L 235.659 164.028 234.187 165.428 L 232.716 166.828 189.129 166.733 C 165.157 166.681,145.414 166.509,145.256 166.352 C 144.934 166.030,144.651 146.807,144.951 145.610 C 145.224 144.523,143.047 144.576,190.231 144.512 C 227.622 144.461,232.866 144.517,233.787 144.976 M217.671 150.026 C 215.367 150.988,213.820 157.898,215.527 159.603 C 216.259 160.334,220.501 161.631,221.103 161.307 C 221.414 161.140,222.411 160.739,223.318 160.415 C 226.561 159.257,226.885 152.792,223.814 150.520 C 222.710 149.703,219.134 149.416,217.671 150.026 M221.619 151.118 C 225.300 152.656,226.060 157.809,222.828 159.325 C 216.298 162.389,212.541 154.602,218.917 151.220 C 220.196 150.541,220.234 150.539,221.619 151.118 M146.174 179.328 C 143.986 180.107,143.734 181.538,143.866 192.433 C 143.941 198.676,144.110 201.961,144.380 202.457 C 145.170 203.904,146.829 203.956,190.914 203.935 L 232.674 203.915 234.565 202.989 C 236.987 201.804,237.041 201.507,236.904 190.339 L 236.801 181.987 235.770 180.903 C 233.674 178.700,236.937 178.845,190.129 178.874 C 156.944 178.894,147.108 178.996,146.174 179.328 M198.436 180.567 L 232.702 180.567 234.150 181.878 L 235.598 183.188 235.594 190.734 C 235.590 198.685,235.239 201.133,233.966 202.099 C 233.189 202.689,146.560 202.811,145.463 202.223 C 144.829 201.884,144.798 201.405,144.798 192.102 C 144.798 181.746,144.870 181.277,146.456 181.243 C 146.774 181.236,147.420 180.997,147.893 180.710 C 148.620 180.270,149.948 180.218,156.461 180.378 C 160.701 180.482,179.589 180.567,198.436 180.567 M217.736 186.566 C 215.168 187.461,215.019 187.708,214.985 191.121 C 214.947 195.102,215.925 196.744,218.739 197.419 C 223.718 198.614,227.599 193.393,225.488 188.340 C 225.073 187.347,221.108 185.461,220.067 185.761 C 220.002 185.780,218.953 186.142,217.736 186.566 M223.815 188.246 C 226.434 190.002,224.999 194.238,221.075 196.338 C 219.098 197.396,215.649 193.965,215.649 190.942 C 215.649 187.477,220.352 185.924,223.815 188.246 " stroke="none" fill="#bcccfc" fill-rule="evenodd"></path><path id="path3" d="M180.396 49.519 C 140.573 49.660,129.329 49.793,128.741 50.129 C 128.328 50.365,127.698 50.559,127.341 50.559 C 126.984 50.559,126.084 51.019,125.341 51.581 C 124.598 52.143,123.804 52.608,123.578 52.613 C 122.910 52.628,116.238 59.215,115.739 60.351 C 115.487 60.924,114.807 61.883,114.228 62.482 C 113.649 63.081,112.868 64.379,112.492 65.367 C 112.117 66.356,111.496 67.497,111.114 67.905 C 110.731 68.312,109.883 69.746,109.228 71.091 C 108.573 72.436,107.873 73.638,107.672 73.763 C 107.290 73.999,105.933 76.774,105.933 77.320 C 105.933 77.493,105.475 78.212,104.914 78.917 C 104.354 79.622,103.579 81.046,103.191 82.082 C 102.804 83.118,102.042 84.442,101.498 85.023 C 100.955 85.605,100.321 86.710,100.091 87.479 C 99.861 88.248,99.166 89.504,98.548 90.269 C 97.930 91.034,97.230 92.279,96.994 93.035 C 96.758 93.792,96.036 95.101,95.390 95.944 C 94.745 96.787,94.123 97.870,94.008 98.351 C 93.893 98.832,93.333 99.923,92.765 100.774 C 91.267 103.016,90.456 104.513,90.456 105.036 C 90.456 105.288,89.978 106.096,89.394 106.831 C 88.444 108.026,87.016 110.695,87.016 111.276 C 87.016 111.399,86.477 112.129,85.818 112.899 C 85.158 113.669,84.522 114.814,84.404 115.444 C 84.286 116.073,83.597 117.416,82.872 118.428 C 82.147 119.441,81.447 120.695,81.316 121.217 C 81.185 121.738,80.543 122.866,79.890 123.722 C 79.236 124.578,78.480 125.907,78.209 126.674 C 77.938 127.442,77.339 128.565,76.877 129.170 C 76.416 129.775,75.636 131.179,75.146 132.289 C 74.655 133.399,73.896 134.695,73.460 135.168 C 73.024 135.641,72.383 136.838,72.036 137.829 C 71.690 138.821,70.987 140.090,70.476 140.650 C 69.964 141.210,69.269 142.411,68.932 143.319 C 68.594 144.227,67.878 145.539,67.341 146.234 C 66.803 146.929,66.022 148.321,65.604 149.329 C 64.906 151.013,64.441 151.762,63.423 152.842 C 63.215 153.063,62.849 153.858,62.611 154.610 C 62.373 155.361,61.724 156.555,61.169 157.264 C 60.614 157.972,59.928 159.210,59.645 160.015 C 59.361 160.820,58.555 162.640,57.854 164.058 L 56.578 166.638 56.578 173.001 L 56.578 179.364 57.665 181.440 C 58.262 182.581,59.005 184.387,59.314 185.453 C 59.624 186.518,60.388 188.060,61.012 188.880 C 61.636 189.699,62.349 190.989,62.596 191.745 C 62.842 192.502,63.554 193.720,64.178 194.451 C 64.801 195.183,65.417 196.264,65.547 196.854 C 65.806 198.034,66.457 199.201,67.590 200.516 C 67.997 200.989,68.603 202.117,68.937 203.023 C 69.270 203.929,69.894 205.090,70.323 205.603 C 70.752 206.115,71.524 207.463,72.038 208.598 C 72.552 209.733,73.245 210.972,73.578 211.350 C 73.910 211.728,74.613 213.073,75.139 214.339 C 75.666 215.605,76.302 216.719,76.553 216.816 C 76.986 216.982,78.069 219.073,78.566 220.705 C 78.693 221.121,79.252 221.948,79.807 222.542 C 80.362 223.137,81.004 224.267,81.232 225.053 C 81.461 225.840,82.146 227.102,82.754 227.859 C 83.362 228.616,84.178 230.072,84.566 231.095 C 84.954 232.117,85.644 233.356,86.099 233.846 C 86.555 234.336,87.258 235.850,87.663 237.209 C 88.157 238.868,88.603 239.746,89.022 239.878 C 89.364 239.987,90.092 241.011,90.638 242.153 C 91.184 243.296,91.847 244.410,92.112 244.630 C 92.377 244.850,93.055 246.037,93.619 247.267 C 94.182 248.498,95.073 250.051,95.598 250.720 C 96.122 251.388,96.763 252.554,97.022 253.310 C 97.281 254.067,97.974 255.265,98.562 255.973 C 99.150 256.681,99.824 257.919,100.059 258.725 C 100.294 259.530,100.947 260.771,101.509 261.483 C 102.072 262.194,102.703 263.277,102.913 263.890 C 103.122 264.503,103.887 265.925,104.613 267.050 C 105.339 268.176,105.933 269.261,105.933 269.463 C 105.933 270.011,107.302 272.518,107.828 272.933 C 108.080 273.132,108.745 274.296,109.305 275.519 C 109.865 276.742,110.767 278.221,111.310 278.806 C 111.852 279.391,112.499 280.540,112.748 281.359 C 112.997 282.179,113.674 283.388,114.253 284.048 C 114.832 284.707,115.510 285.722,115.759 286.303 C 116.176 287.274,118.494 289.795,121.564 292.619 C 122.241 293.242,123.472 294.042,124.300 294.397 C 125.128 294.752,125.917 295.222,126.053 295.443 C 126.190 295.663,127.019 296.179,127.897 296.589 L 129.493 297.334 180.739 297.557 C 208.925 297.679,234.850 297.786,238.349 297.795 C 249.276 297.824,255.890 296.815,255.890 295.120 C 255.890 294.949,256.362 294.706,256.938 294.579 C 257.768 294.397,260.758 291.987,262.143 290.383 C 262.272 290.234,263.065 289.338,263.905 288.392 C 264.745 287.446,265.550 286.285,265.694 285.813 C 265.838 285.340,266.386 284.406,266.912 283.738 C 267.437 283.069,268.360 281.444,268.962 280.126 C 269.565 278.808,270.255 277.617,270.498 277.479 C 270.740 277.341,271.288 276.335,271.717 275.243 C 272.146 274.152,272.960 272.661,273.528 271.929 C 274.095 271.198,274.851 269.831,275.208 268.891 C 275.565 267.951,276.294 266.715,276.828 266.143 C 277.362 265.572,278.052 264.308,278.362 263.335 C 278.672 262.361,279.369 261.095,279.911 260.520 C 280.452 259.945,281.095 258.862,281.338 258.113 C 281.764 256.800,282.729 255.182,283.652 254.232 C 283.894 253.982,284.093 253.625,284.093 253.439 C 284.093 252.802,285.415 250.216,286.129 249.456 C 286.522 249.039,287.165 247.835,287.560 246.781 C 287.954 245.727,288.714 244.385,289.249 243.800 C 289.784 243.215,290.506 242.174,290.854 241.488 C 291.203 240.802,291.885 239.764,292.371 239.182 C 292.857 238.599,293.612 237.013,294.048 235.656 C 294.484 234.300,294.961 233.190,295.108 233.190 C 295.468 233.190,296.759 230.966,297.033 229.874 C 297.155 229.391,297.795 228.287,298.457 227.420 C 299.118 226.553,299.807 225.292,299.987 224.616 C 300.168 223.940,300.789 222.789,301.367 222.058 C 301.945 221.326,302.671 220.088,302.980 219.306 C 303.782 217.276,304.699 215.649,305.040 215.649 C 305.202 215.649,305.525 215.146,305.760 214.531 C 306.728 211.993,307.585 210.302,308.034 210.044 C 308.489 209.781,309.558 207.695,310.029 206.147 C 310.152 205.744,310.635 204.971,311.104 204.427 C 311.573 203.884,312.216 202.743,312.533 201.892 C 312.850 201.040,313.567 199.752,314.127 199.029 C 314.687 198.306,315.368 197.068,315.639 196.280 C 315.911 195.491,316.655 194.209,317.293 193.431 C 317.930 192.653,318.628 191.317,318.843 190.463 C 319.058 189.609,319.713 188.387,320.299 187.748 C 321.006 186.977,321.627 185.683,322.148 183.895 C 322.580 182.415,323.178 180.714,323.477 180.114 C 324.907 177.247,324.913 169.738,323.488 167.237 C 323.192 166.718,322.586 165.123,322.140 163.692 C 321.668 162.174,320.810 160.408,320.080 159.452 C 319.393 158.552,318.831 157.599,318.831 157.336 C 318.831 156.692,317.603 154.373,316.814 153.526 C 316.463 153.149,315.976 152.231,315.731 151.485 C 315.486 150.739,314.756 149.434,314.109 148.585 C 313.463 147.736,312.855 146.652,312.760 146.177 C 312.664 145.702,312.134 144.695,311.582 143.938 C 311.030 143.181,310.336 142.021,310.040 141.359 C 308.684 138.329,308.439 137.877,307.843 137.314 C 307.494 136.985,306.797 135.732,306.293 134.530 C 305.790 133.328,305.003 131.939,304.544 131.445 C 304.086 130.951,303.482 129.874,303.202 129.052 C 302.922 128.230,302.166 126.833,301.521 125.946 C 300.877 125.059,300.152 123.715,299.910 122.958 C 299.668 122.201,299.369 121.505,299.246 121.410 C 298.675 120.973,297.445 118.914,296.998 117.647 C 296.726 116.877,296.046 115.667,295.486 114.959 C 294.926 114.251,294.275 113.013,294.040 112.207 C 293.805 111.402,293.096 110.139,292.464 109.401 C 291.832 108.663,291.316 107.959,291.316 107.837 C 291.316 107.213,289.749 104.293,289.081 103.672 C 288.660 103.279,287.973 102.041,287.555 100.920 C 287.137 99.799,286.504 98.571,286.149 98.191 C 285.794 97.811,285.104 96.596,284.616 95.492 C 284.128 94.389,283.286 92.920,282.744 92.229 C 282.203 91.537,281.570 90.353,281.338 89.596 C 281.106 88.839,280.495 87.756,279.981 87.188 C 279.466 86.621,278.770 85.383,278.433 84.437 C 278.096 83.491,277.379 82.151,276.839 81.460 C 276.300 80.769,275.459 79.300,274.971 78.196 C 274.483 77.092,273.772 75.858,273.391 75.452 C 273.011 75.047,272.336 73.822,271.892 72.730 C 271.448 71.639,270.819 70.434,270.494 70.054 C 270.168 69.674,269.511 68.510,269.034 67.468 C 268.557 66.425,267.571 64.723,266.843 63.684 C 266.116 62.645,265.520 61.619,265.520 61.404 C 265.520 61.189,264.820 60.248,263.964 59.312 C 260.337 55.346,258.364 53.569,256.665 52.738 C 255.671 52.252,254.858 51.724,254.858 51.564 C 254.858 50.803,250.213 49.874,245.548 49.703 C 236.103 49.356,230.617 49.341,180.396 49.519 M245.491 51.015 L 251.774 51.135 252.714 52.166 C 253.294 52.801,254.543 53.506,255.973 54.004 C 257.589 54.567,258.359 55.026,258.516 55.521 C 258.790 56.383,259.634 57.068,260.441 57.083 C 260.808 57.090,261.381 57.772,261.929 58.852 C 262.419 59.819,263.113 60.687,263.471 60.781 C 263.829 60.875,264.217 61.283,264.333 61.688 C 264.836 63.444,265.977 65.488,266.877 66.245 C 267.480 66.752,267.939 67.556,268.084 68.356 C 268.330 69.714,269.779 72.227,270.316 72.227 C 270.489 72.227,270.888 73.114,271.204 74.199 C 271.543 75.367,272.169 76.545,272.738 77.089 C 273.267 77.595,273.882 78.603,274.105 79.331 C 274.743 81.413,275.250 82.256,276.046 82.559 C 276.544 82.748,276.864 83.263,277.029 84.142 C 277.358 85.899,278.124 87.344,279.318 88.459 C 279.863 88.968,280.310 89.691,280.310 90.064 C 280.310 91.204,281.596 93.820,282.262 94.035 C 282.944 94.256,283.749 95.715,283.749 96.732 C 283.749 97.583,284.633 99.249,285.381 99.807 C 286.054 100.310,286.610 101.367,287.172 103.211 C 287.379 103.889,287.992 104.869,288.536 105.390 C 289.079 105.910,289.722 107.047,289.965 107.916 C 290.396 109.454,291.321 110.748,291.990 110.748 C 292.172 110.748,292.486 111.406,292.687 112.210 C 293.251 114.463,293.959 115.820,294.887 116.428 C 295.450 116.797,295.811 117.441,295.964 118.349 C 296.269 120.152,297.048 121.663,297.990 122.281 C 298.449 122.581,299.001 123.574,299.369 124.762 C 299.706 125.850,300.417 127.206,300.947 127.773 C 301.478 128.340,302.169 129.579,302.483 130.525 C 302.797 131.470,303.414 132.631,303.853 133.104 C 304.813 134.139,305.598 135.657,305.901 137.063 C 306.024 137.638,306.543 138.380,307.069 138.733 C 307.737 139.183,308.190 139.965,308.614 141.402 C 309.160 143.255,309.539 143.825,311.024 145.029 C 311.298 145.251,311.628 146.138,311.757 147.000 C 311.933 148.173,312.332 148.921,313.348 149.978 C 314.093 150.754,314.703 151.692,314.703 152.062 C 314.703 152.929,315.998 155.475,316.789 156.164 C 317.125 156.457,317.723 157.618,318.119 158.744 C 318.514 159.870,319.128 161.023,319.482 161.307 C 320.515 162.135,320.950 163.285,321.620 166.963 C 321.966 168.865,322.402 171.118,322.589 171.969 C 322.932 173.533,322.741 176.666,322.264 177.300 C 322.121 177.489,321.825 178.805,321.604 180.224 C 321.010 184.049,320.478 185.695,319.663 186.229 C 319.262 186.491,318.580 187.653,318.147 188.810 C 317.714 189.967,316.941 191.362,316.430 191.911 C 315.918 192.459,315.227 193.770,314.895 194.826 C 314.563 195.881,314.031 196.884,313.713 197.055 C 313.026 197.422,311.608 200.137,311.608 201.085 C 311.608 201.451,310.999 202.403,310.256 203.200 C 309.247 204.282,308.804 205.129,308.512 206.538 C 308.296 207.577,308.000 208.426,307.853 208.426 C 307.119 208.426,306.082 209.892,305.416 211.870 C 305.007 213.082,304.305 214.416,303.855 214.833 C 303.405 215.249,302.932 216.029,302.803 216.566 C 302.456 218.007,301.443 219.867,300.639 220.539 C 300.251 220.864,299.837 221.560,299.719 222.087 C 299.378 223.617,298.528 225.305,297.996 225.509 C 297.447 225.720,296.131 228.476,296.131 229.414 C 296.131 229.749,295.737 230.387,295.255 230.832 C 294.145 231.858,293.162 233.713,292.852 235.364 C 292.720 236.069,292.356 236.836,292.044 237.068 C 291.270 237.642,290.512 238.899,289.793 240.801 C 289.443 241.725,288.841 242.580,288.357 242.839 C 287.844 243.114,287.368 243.823,287.117 244.686 C 286.894 245.457,286.045 247.073,285.230 248.277 C 284.415 249.482,283.749 250.824,283.749 251.260 C 283.749 251.697,283.284 252.519,282.716 253.087 C 281.705 254.097,280.310 256.838,280.310 257.812 C 280.310 258.082,279.907 258.649,279.415 259.074 C 278.553 259.817,277.539 261.671,277.022 263.450 C 276.885 263.919,276.356 264.693,275.846 265.169 C 275.336 265.646,274.641 266.887,274.302 267.928 C 273.963 268.968,273.238 270.267,272.691 270.813 C 272.144 271.359,271.531 272.467,271.327 273.275 C 271.124 274.083,270.452 275.296,269.833 275.971 C 269.215 276.646,268.513 277.902,268.272 278.762 C 268.031 279.622,267.311 280.897,266.672 281.595 C 266.032 282.293,265.248 283.694,264.928 284.708 C 264.548 285.913,264.070 286.698,263.549 286.970 C 263.111 287.200,262.485 287.921,262.159 288.573 C 261.832 289.225,261.233 289.921,260.828 290.120 C 259.678 290.685,258.940 291.390,258.621 292.229 C 258.422 292.752,257.928 293.073,257.078 293.233 C 256.390 293.362,255.106 294.020,254.225 294.696 C 251.887 296.489,254.191 296.425,192.261 296.417 C 129.876 296.409,129.497 296.401,128.180 295.084 C 127.127 294.030,126.163 293.523,124.334 293.059 C 123.311 292.799,122.843 292.450,122.511 291.697 C 122.258 291.121,121.648 290.538,121.100 290.347 C 120.569 290.162,119.788 289.451,119.366 288.767 C 118.943 288.083,118.313 287.372,117.966 287.186 C 117.619 287.000,116.947 286.001,116.474 284.966 C 116.000 283.932,115.285 282.733,114.884 282.304 C 114.039 281.396,113.156 279.727,113.156 279.037 C 113.156 278.774,112.731 278.140,112.211 277.628 C 111.052 276.488,110.664 275.774,110.099 273.746 C 109.788 272.633,109.364 271.995,108.658 271.578 C 108.086 271.240,107.574 270.589,107.465 270.059 C 107.049 268.042,106.060 266.023,105.331 265.700 C 104.780 265.456,104.457 264.853,104.156 263.506 C 103.879 262.271,103.372 261.259,102.641 260.483 C 102.036 259.842,101.200 258.406,100.783 257.291 C 100.367 256.177,99.666 254.927,99.225 254.513 C 98.785 254.100,98.327 253.372,98.207 252.896 C 97.795 251.251,96.569 249.011,96.082 249.011 C 95.813 249.011,95.531 248.818,95.455 248.581 C 94.326 245.064,93.757 243.919,92.878 243.400 C 92.199 242.998,91.838 242.441,91.669 241.534 C 91.450 240.351,90.227 238.338,89.213 237.489 C 88.987 237.300,88.632 236.327,88.425 235.326 C 88.044 233.480,87.786 233.016,86.431 231.743 C 86.015 231.352,85.575 230.578,85.453 230.024 C 85.152 228.652,84.529 227.514,83.537 226.522 C 83.080 226.064,82.509 224.956,82.269 224.058 C 81.984 222.991,81.420 222.048,80.641 221.335 C 79.986 220.735,79.450 220.022,79.449 219.752 C 79.449 218.668,78.111 215.831,77.465 215.542 C 76.665 215.185,76.232 214.374,75.666 212.169 C 75.409 211.169,74.836 210.183,74.117 209.505 C 73.371 208.801,72.898 207.969,72.752 207.106 C 72.618 206.311,71.992 205.134,71.185 204.157 C 70.446 203.263,69.744 202.011,69.625 201.375 C 69.505 200.739,68.896 199.705,68.272 199.078 C 67.616 198.420,66.960 197.282,66.722 196.392 C 66.249 194.624,65.170 192.949,64.503 192.949 C 64.253 192.949,63.946 192.401,63.821 191.732 C 63.507 190.060,62.353 187.446,61.929 187.446 C 61.285 187.446,60.577 185.915,60.052 183.386 C 59.724 181.807,59.220 180.504,58.695 179.880 C 56.632 177.428,56.641 168.270,58.709 166.058 C 59.374 165.346,59.658 164.506,60.349 161.217 C 60.459 160.694,60.991 159.843,61.533 159.325 C 62.519 158.382,63.629 156.189,63.629 155.184 C 63.629 154.890,64.157 154.165,64.804 153.573 C 65.619 152.826,66.158 151.878,66.566 150.475 C 66.957 149.132,67.529 148.100,68.271 147.400 C 69.078 146.638,69.508 145.810,69.820 144.416 C 70.159 142.901,70.462 142.363,71.230 141.909 C 71.897 141.514,72.330 140.871,72.593 139.883 C 72.936 138.593,74.017 136.815,75.193 135.604 C 75.419 135.372,75.705 134.581,75.829 133.847 C 75.968 133.026,76.493 132.048,77.194 131.305 C 77.821 130.640,78.600 129.264,78.925 128.247 C 79.250 127.230,79.858 126.088,80.276 125.709 C 81.404 124.686,82.122 123.393,82.394 121.890 C 82.551 121.018,83.035 120.179,83.778 119.487 C 84.582 118.739,85.093 117.800,85.507 116.312 C 85.901 114.892,86.303 114.133,86.731 113.997 C 87.423 113.777,88.154 112.540,88.540 110.935 C 88.675 110.375,89.175 109.527,89.652 109.050 C 90.708 107.994,91.318 106.825,91.609 105.296 C 91.730 104.662,92.219 103.835,92.697 103.460 C 93.746 102.634,94.411 101.386,94.725 99.653 C 94.875 98.823,95.266 98.160,95.819 97.798 C 96.776 97.171,97.896 95.088,98.228 93.322 C 98.357 92.632,98.813 91.905,99.357 91.517 C 99.897 91.132,100.537 90.115,100.924 89.028 C 101.284 88.016,102.077 86.599,102.688 85.878 C 103.298 85.158,103.964 83.907,104.168 83.099 C 104.376 82.272,105.054 81.083,105.719 80.377 C 106.484 79.566,106.985 78.629,107.139 77.719 C 107.304 76.738,107.772 75.922,108.689 75.015 C 109.694 74.019,110.058 73.337,110.244 72.097 C 110.436 70.816,110.725 70.297,111.636 69.603 C 112.268 69.121,112.878 68.392,112.992 67.983 C 113.106 67.574,113.332 66.930,113.494 66.552 C 113.657 66.174,113.876 65.465,113.980 64.977 C 114.085 64.490,114.548 63.919,115.009 63.708 C 115.470 63.498,115.948 62.969,116.071 62.532 C 116.502 60.996,117.096 60.126,118.045 59.635 C 118.571 59.363,119.003 58.960,119.003 58.741 C 119.003 58.201,120.396 56.750,120.915 56.750 C 121.144 56.750,121.609 56.324,121.950 55.804 C 122.875 54.390,123.235 54.105,124.439 53.841 C 125.270 53.658,127.969 51.838,128.407 51.165 C 128.482 51.050,231.556 50.712,235.770 50.813 C 237.661 50.858,242.036 50.949,245.491 51.015 M147.746 142.007 C 147.643 142.174,146.881 142.413,146.053 142.537 C 142.964 143.000,143.038 142.652,143.151 156.231 L 143.250 168.109 144.110 168.824 L 144.970 169.539 189.338 169.542 C 231.668 169.546,233.769 169.517,235.082 168.915 C 238.110 167.524,238.330 166.562,238.341 154.664 C 238.351 143.718,238.333 143.654,234.996 142.713 C 234.192 142.486,233.534 142.166,233.534 142.002 C 233.534 141.604,147.992 141.609,147.746 142.007 M234.419 143.997 C 237.033 144.884,236.950 144.524,236.962 155.047 C 236.974 165.424,236.930 165.677,234.790 167.309 L 233.638 168.188 189.308 168.101 L 144.979 168.014 144.459 166.982 C 143.627 165.334,143.693 146.001,144.534 144.718 C 145.352 143.469,142.569 143.545,190.222 143.480 C 229.125 143.427,232.867 143.471,234.419 143.997 M218.917 151.220 C 212.541 154.602,216.298 162.389,222.828 159.325 C 226.060 157.809,225.300 152.656,221.619 151.118 C 220.234 150.539,220.196 150.541,218.917 151.220 M222.161 153.448 C 224.056 154.625,224.154 154.883,223.400 156.687 C 222.350 159.201,217.374 159.529,216.892 157.117 C 216.401 154.660,216.574 154.192,218.315 153.289 C 220.408 152.202,220.140 152.191,222.161 153.448 M145.147 178.074 C 143.116 179.093,143.089 179.272,143.083 191.621 C 143.077 204.635,142.989 204.259,146.117 204.560 C 147.102 204.655,147.991 204.867,148.093 205.032 C 148.334 205.423,232.747 205.425,232.989 205.034 C 233.090 204.871,233.834 204.551,234.643 204.322 C 238.099 203.345,238.302 202.602,238.331 190.817 C 238.357 180.555,237.879 179.087,234.169 178.028 C 231.063 177.140,146.920 177.185,145.147 178.074 M233.809 179.333 C 234.320 179.600,235.202 180.306,235.770 180.903 L 236.801 181.987 236.904 190.339 C 237.041 201.507,236.987 201.804,234.565 202.989 L 232.674 203.915 190.914 203.935 C 146.829 203.956,145.170 203.904,144.380 202.457 C 144.110 201.961,143.941 198.676,143.866 192.433 C 143.734 181.538,143.986 180.107,146.174 179.328 C 148.072 178.653,232.516 178.658,233.809 179.333 M218.573 187.340 C 214.591 187.955,214.609 193.304,218.601 195.788 C 220.059 196.696,220.305 196.750,221.075 196.338 C 227.594 192.849,225.753 186.230,218.573 187.340 M223.606 189.229 C 224.172 190.122,223.954 192.953,223.302 193.183 C 222.971 193.300,222.201 193.764,221.592 194.214 L 220.483 195.033 219.105 194.163 C 218.347 193.685,217.585 193.293,217.413 193.293 C 216.350 193.293,216.388 189.270,217.455 188.810 C 218.541 188.341,223.247 188.662,223.606 189.229 " style="stroke:#999696;stroke-width:1;fill:#eaeaea"  fill="#94b4f4" fill-rule="evenodd"></path></g></svg>
